<?xml version="1.0" standalone="no"?>
<!DOCTYPE svg PUBLIC "-//W3C//DTD SVG 20010904//EN"
 "http://www.w3.org/TR/2001/REC-SVG-20010904/DTD/svg10.dtd">
<svg version="1.0" xmlns="http://www.w3.org/2000/svg"
 width="128.000000pt" height="128.000000pt" viewBox="0 0 128.000000 128.000000"
 preserveAspectRatio="xMidYMid meet">
<metadata>
Created by potrace 1.14, written by Peter Selinger 2001-2017
</metadata>
<g transform="translate(0.000000,128.000000) scale(0.100000,-0.100000)"
fill="#000000" stroke="none">
<path d="M270 1207 c-84 -26 -179 -73 -233 -118 l-37 -30 0 -498 0 -498 44
-31 44 -32 360 0 360 0 49 38 c26 21 55 47 63 57 13 16 10 16 -26 -3 -102 -52
-279 -68 -399 -37 -168 44 -313 157 -387 300 -87 167 -92 362 -14 530 71 153
228 284 395 331 46 12 46 12 -49 13 -70 0 -115 -6 -170 -22z"/>
<path d="M545 950 c-16 -5 -34 -15 -40 -22 -5 -7 -26 -14 -45 -15 -40 -3 -59
-22 -101 -108 -34 -71 -38 -145 -13 -236 13 -45 31 -75 81 -133 80 -93 101
-101 237 -93 159 9 247 46 280 114 13 28 14 39 3 71 -9 26 -10 50 -3 81 20 94
-41 239 -117 274 -19 9 -40 23 -47 32 -7 8 -23 15 -35 15 -13 0 -25 5 -27 12
-5 15 -131 21 -173 8z m165 -180 c0 -5 -2 -10 -4 -10 -3 0 -8 5 -11 10 -3 6
-1 10 4 10 6 0 11 -4 11 -10z m30 -30 c0 -5 -5 -10 -11 -10 -5 0 -7 5 -4 10 3
6 8 10 11 10 2 0 4 -4 4 -10z"/>
</g>
</svg>
