<?xml version="1.0" standalone="no"?>
<!DOCTYPE svg PUBLIC "-//W3C//DTD SVG 20010904//EN"
 "http://www.w3.org/TR/2001/REC-SVG-20010904/DTD/svg10.dtd">
<svg version="1.0" xmlns="http://www.w3.org/2000/svg"
 width="2400.000000pt" height="2400.000000pt" viewBox="0 0 2400.000000 2400.000000"
 preserveAspectRatio="xMidYMid meet">
<metadata>
Created by potrace 1.14, written by Peter Selinger 2001-2017
</metadata>
<g transform="translate(0.000000,2400.000000) scale(0.100000,-0.100000)"
fill="#000000" stroke="none">
<path d="M22632 22315 c-132 -27 -194 -47 -427 -137 -249 -97 -475 -178 -855
-306 -329 -111 -530 -182 -585 -207 -16 -7 -55 -23 -85 -35 -53 -20 -254 -118
-295 -143 -80 -48 -167 -106 -205 -136 -95 -74 -199 -190 -268 -296 -73 -115
-135 -313 -157 -500 -7 -61 -13 -102 -25 -180 -5 -33 -12 -85 -15 -115 -3 -30
-8 -66 -10 -80 -2 -14 -11 -79 -20 -145 -9 -66 -29 -214 -46 -330 -16 -115
-32 -228 -35 -250 -3 -22 -9 -42 -14 -45 -10 -6 -4808 -6 -4813 0 -3 3 -7 39
-11 80 -3 41 -8 93 -11 115 -2 22 -7 63 -10 90 -3 28 -7 68 -10 90 -12 98 -16
143 -21 194 -2 31 -8 90 -14 131 -5 41 -12 104 -15 140 -4 36 -8 81 -10 101
-3 20 -7 60 -10 90 -18 192 -39 272 -96 379 -64 120 -199 239 -329 288 -50 18
-69 24 -135 38 -30 7 -173 6 -225 0 -94 -13 -117 -15 -175 -21 -33 -3 -71 -8
-85 -10 -14 -2 -59 -6 -100 -9 -41 -4 -86 -8 -100 -10 -23 -4 -139 -17 -185
-21 -11 -1 -47 -5 -80 -9 -58 -7 -84 -10 -190 -21 -27 -3 -90 -10 -140 -15
-49 -6 -115 -12 -145 -15 -30 -3 -71 -7 -90 -10 -19 -2 -60 -7 -90 -10 -30 -3
-71 -8 -90 -10 -33 -4 -67 -7 -190 -20 -30 -3 -71 -8 -90 -10 -19 -3 -60 -7
-90 -10 -30 -3 -98 -11 -150 -17 -52 -7 -98 -11 -102 -10 -5 1 -38 -2 -75 -8
-38 -5 -97 -12 -133 -15 -36 -3 -76 -8 -90 -10 -14 -2 -52 -6 -85 -10 -93 -9
-136 -14 -180 -19 -22 -3 -69 -8 -105 -11 -36 -3 -101 -10 -145 -15 -44 -5
-109 -12 -145 -15 -36 -4 -76 -8 -90 -10 -38 -5 -119 -14 -180 -20 -30 -3 -77
-8 -105 -11 -27 -3 -66 -7 -85 -9 -47 -4 -137 -14 -180 -20 -19 -2 -57 -7 -85
-10 -98 -9 -150 -15 -185 -20 -19 -2 -62 -6 -95 -9 -76 -7 -150 -15 -195 -21
-19 -3 -62 -7 -95 -11 -33 -3 -71 -7 -85 -9 -14 -3 -55 -7 -90 -10 -36 -3 -81
-7 -100 -10 -36 -5 -83 -10 -185 -20 -33 -3 -94 -10 -135 -15 -41 -5 -106 -12
-145 -15 -38 -4 -81 -8 -95 -10 -25 -4 -99 -12 -179 -20 -24 -3 -60 -7 -80 -9
-20 -3 -63 -8 -95 -11 -33 -3 -71 -7 -85 -9 -14 -3 -57 -7 -96 -11 -38 -3
-108 -10 -154 -16 -47 -5 -108 -12 -135 -14 -56 -5 -137 -14 -176 -20 -14 -2
-58 -7 -97 -10 -40 -3 -80 -8 -90 -9 -10 -2 -52 -7 -93 -11 -41 -3 -86 -8
-100 -10 -14 -2 -54 -6 -90 -10 -36 -4 -76 -8 -90 -10 -14 -2 -55 -6 -92 -10
-37 -3 -75 -7 -85 -9 -10 -2 -54 -7 -98 -10 -44 -4 -91 -9 -105 -11 -14 -2
-50 -6 -80 -10 -107 -11 -155 -16 -190 -20 -19 -3 -62 -7 -95 -10 -33 -3 -76
-8 -95 -10 -106 -12 -194 -22 -280 -31 -36 -3 -72 -8 -81 -9 -9 -2 -52 -6 -95
-10 -43 -3 -86 -8 -94 -10 -8 -2 -48 -7 -89 -10 -41 -4 -82 -8 -90 -10 -9 -1
-50 -6 -91 -10 -120 -12 -122 -12 -180 -20 -72 -9 -181 -48 -249 -88 -70 -41
-177 -148 -218 -218 -77 -128 -108 -284 -88 -440 5 -43 3 -57 -7 -60 -7 -3
-925 -4 -2040 -4 l-2028 1 5 -26 c2 -14 7 -50 10 -80 3 -30 8 -66 10 -80 3
-22 7 -55 19 -155 5 -40 21 -157 31 -225 2 -14 9 -63 15 -110 19 -150 30 -234
36 -265 2 -11 6 -44 9 -74 3 -30 8 -57 10 -60 2 -4 6 -38 10 -76 4 -39 9 -72
10 -75 2 -3 7 -33 10 -65 4 -33 9 -62 10 -65 2 -3 6 -34 10 -70 4 -36 9 -74
11 -85 7 -33 12 -66 24 -150 6 -44 13 -91 15 -104 2 -13 7 -45 11 -70 3 -25 8
-57 10 -71 2 -14 7 -45 10 -70 6 -55 13 -100 19 -120 2 -8 6 -37 10 -65 3 -27
7 -61 10 -75 3 -14 7 -41 10 -60 3 -19 8 -46 10 -60 3 -14 7 -41 9 -60 6 -46
14 -96 32 -205 17 -101 19 -112 34 -210 6 -38 13 -81 15 -95 2 -14 6 -41 9
-60 3 -19 8 -48 11 -65 3 -16 19 -113 36 -215 17 -102 33 -194 34 -205 2 -11
6 -33 9 -50 3 -16 8 -47 11 -69 4 -21 8 -48 11 -60 2 -11 26 -149 54 -306 27
-157 52 -296 55 -310 3 -14 10 -52 15 -85 11 -62 25 -138 41 -215 5 -25 11
-56 13 -70 2 -14 14 -77 26 -140 12 -63 24 -124 26 -135 2 -11 18 -90 35 -175
17 -85 32 -164 34 -175 4 -24 21 -108 75 -370 23 -110 44 -209 46 -220 2 -11
6 -29 8 -40 3 -11 12 -53 20 -94 9 -40 18 -76 20 -80 2 -3 7 -23 10 -44 3 -21
36 -165 72 -320 36 -155 67 -292 70 -303 13 -67 122 -495 179 -705 127 -468
318 -1067 405 -1274 4 -11 18 -45 30 -75 11 -30 25 -64 30 -75 5 -11 21 -49
36 -85 38 -94 129 -280 187 -385 46 -82 142 -233 156 -245 3 -3 18 -21 32 -40
15 -19 44 -53 65 -75 22 -22 52 -58 69 -80 74 -101 205 -191 407 -279 83 -37
370 -125 458 -142 14 -3 39 -9 55 -14 17 -5 46 -12 65 -15 19 -4 80 -15 135
-25 55 -11 117 -22 139 -26 21 -3 48 -8 60 -10 11 -2 41 -7 66 -10 25 -3 52
-7 60 -9 8 -2 39 -7 69 -10 30 -4 63 -9 75 -11 12 -2 50 -7 86 -10 36 -3 67
-7 70 -9 3 -2 44 -7 90 -10 47 -4 87 -9 90 -10 3 -2 46 -6 95 -10 50 -3 101
-8 115 -10 14 -2 61 -6 105 -10 44 -3 105 -8 135 -10 139 -12 273 -21 445 -30
61 -3 144 -8 185 -10 416 -25 1103 -39 1910 -39 929 0 1755 15 2705 49 88 3
221 8 295 10 134 5 292 11 485 20 55 2 168 7 250 10 83 4 191 8 240 10 50 3
151 7 225 10 74 3 171 7 215 10 44 3 134 7 200 10 66 3 163 7 215 10 52 3 142
7 200 10 113 6 228 12 380 20 52 3 142 7 200 10 58 3 146 8 195 10 50 3 133 7
185 10 52 3 133 7 180 10 47 3 126 7 175 10 50 3 135 7 190 10 55 3 129 7 165
10 36 2 119 7 185 10 66 3 147 8 180 10 33 3 112 7 175 10 63 3 140 8 170 10
30 2 107 6 170 9 63 4 144 8 180 11 36 2 124 7 195 10 72 3 157 8 190 10 59 4
252 14 390 20 293 13 453 18 599 19 l168 1 32 -38 c36 -42 95 -186 120 -287
54 -224 76 -410 78 -660 1 -194 -9 -316 -42 -476 -51 -251 -152 -434 -258
-467 -87 -28 -191 -46 -347 -62 -33 -3 -78 -8 -100 -10 -37 -4 -71 -7 -240
-20 -55 -4 -166 -10 -365 -20 -41 -2 -158 -7 -260 -10 -102 -4 -225 -8 -275
-10 -699 -25 -3250 -25 -4765 0 -124 2 -387 7 -585 10 -198 3 -445 8 -550 10
-104 2 -332 7 -505 10 -173 3 -398 8 -500 10 -102 2 -309 7 -460 10 -151 3
-342 7 -425 10 -82 2 -267 7 -410 10 -143 3 -332 7 -420 10 -88 2 -254 7 -370
10 -515 13 -856 22 -1110 30 -88 3 -236 7 -330 10 -93 3 -246 7 -340 10 -93 3
-244 7 -335 10 -91 2 -241 7 -335 10 -434 15 -433 15 -438 -3 -3 -9 -19 -55
-36 -102 -26 -75 -76 -238 -86 -280 -2 -8 -11 -46 -20 -85 -9 -38 -18 -86 -21
-105 -2 -19 -9 -51 -14 -72 -6 -20 -10 -40 -8 -45 1 -4 -2 -35 -6 -68 -5 -33
-10 -73 -12 -90 -6 -48 -5 -245 1 -305 25 -216 92 -377 204 -487 39 -38 127
-75 206 -88 17 -3 50 -10 75 -15 25 -6 63 -12 85 -15 22 -3 51 -7 65 -9 14 -3
50 -7 81 -11 31 -3 65 -7 75 -9 11 -2 55 -7 99 -11 44 -4 94 -9 110 -10 17 -2
71 -6 120 -10 50 -3 106 -8 125 -10 19 -2 82 -7 140 -10 58 -3 129 -8 158 -10
29 -2 108 -7 175 -10 67 -3 154 -8 192 -10 100 -6 297 -14 460 -20 77 -3 203
-7 280 -10 280 -10 575 -18 1110 -30 260 -6 937 -16 1330 -20 438 -5 2804 -5
3265 0 558 6 1206 14 1505 20 618 11 859 16 1000 20 83 3 251 7 375 10 124 3
281 8 350 10 69 2 217 7 330 11 208 6 237 7 530 18 272 10 491 20 670 31 36 2
124 7 195 10 72 3 150 8 175 10 25 2 101 6 170 10 69 3 136 8 150 10 14 2 68
7 120 10 52 3 111 8 130 10 88 9 166 17 201 20 76 6 214 26 344 51 68 12 126
38 156 68 103 106 227 451 419 1171 63 233 67 250 76 295 3 14 11 49 20 78 8
29 19 71 24 95 4 23 11 51 13 62 15 56 101 417 112 465 7 30 27 116 44 191 17
75 34 146 36 158 3 11 7 29 9 39 2 9 7 28 10 42 3 14 14 63 25 110 11 47 22
96 25 110 5 28 101 472 116 538 11 46 20 89 44 197 9 39 47 223 86 410 39 187
75 358 80 380 8 33 33 151 74 355 67 332 109 538 111 550 5 21 46 229 51 260
3 14 9 41 14 60 5 19 12 51 15 70 5 27 51 264 100 510 3 14 8 39 11 55 2 17 9
46 14 65 5 19 11 52 14 73 4 21 13 73 22 115 9 42 18 88 20 102 5 26 30 155
40 200 2 14 11 59 19 100 8 41 26 136 40 210 14 74 32 169 40 210 7 41 18 96
24 123 6 26 14 64 17 85 3 20 7 45 10 55 3 10 7 30 9 45 2 15 15 83 29 152 14
69 27 136 29 150 3 14 22 113 42 220 20 107 39 205 41 218 2 12 6 32 8 45 3
12 14 72 26 132 11 61 22 119 24 130 5 23 26 138 33 175 2 14 10 57 18 95 8
39 17 84 20 100 14 80 68 370 96 515 11 58 22 116 24 130 2 14 13 75 25 135
11 61 23 124 26 140 10 55 124 669 139 750 23 119 23 119 29 161 7 40 36 202
61 334 16 86 18 95 45 245 11 61 22 120 24 131 3 12 7 37 10 55 8 44 13 76 32
179 9 47 17 94 19 105 23 130 37 204 50 275 16 89 53 290 85 473 11 60 21 116
24 125 3 9 7 39 11 66 3 27 8 52 10 55 1 3 6 31 10 61 4 30 8 57 10 60 2 3 6
27 9 54 4 27 9 52 11 56 2 3 6 24 9 46 4 22 9 51 11 64 3 14 10 52 15 85 15
90 19 111 41 228 20 110 19 127 -7 127 -8 0 -13 4 -10 8 3 5 7 19 10 33 18 88
64 227 100 304 53 111 109 175 184 212 52 26 67 28 167 28 61 0 129 -4 152 -8
50 -9 192 -54 283 -90 439 -171 598 -224 785 -262 134 -27 295 -32 376 -11
164 43 265 155 304 336 13 60 14 315 1 375 -10 49 -23 306 -31 620 -9 342 -18
528 -30 620 -2 22 -7 60 -10 85 -3 25 -7 52 -9 60 -1 8 -6 33 -10 55 -57 301
-207 494 -426 545 -89 22 -215 19 -338 -5z m-17940 -3924 c53 -18 121 -54 160
-84 18 -14 23 -35 33 -132 3 -33 8 -76 10 -95 4 -31 17 -158 31 -290 2 -25 6
-61 9 -80 3 -19 7 -60 10 -90 10 -98 16 -155 20 -180 2 -14 6 -56 10 -95 3
-38 8 -81 10 -95 2 -14 7 -56 10 -95 3 -38 7 -81 10 -95 5 -34 14 -114 20
-177 9 -100 23 -226 30 -283 2 -19 9 -82 15 -140 6 -58 13 -121 15 -140 2 -19
7 -60 10 -90 3 -30 8 -71 10 -90 2 -19 7 -62 10 -95 3 -33 8 -72 11 -87 4 -24
0 -28 -33 -37 -21 -5 -99 -26 -173 -45 -74 -19 -193 -50 -265 -69 -154 -41
-598 -157 -623 -162 -144 -33 -335 -91 -393 -118 -85 -40 -169 -105 -223 -171
-46 -55 -128 -214 -119 -230 3 -6 2 -7 -2 -3 -5 4 -10 13 -11 20 -3 21 -75
441 -80 472 -3 17 -10 55 -15 85 -6 30 -12 66 -13 80 -2 14 -9 52 -15 85 -6
33 -13 77 -17 99 -3 21 -8 48 -10 60 -5 25 -84 482 -88 511 -2 11 -6 34 -9 50
-4 17 -9 46 -12 65 -3 29 -42 255 -60 360 -5 26 -41 241 -50 295 -3 17 -9 55
-15 85 -36 192 -46 274 -44 337 8 177 115 348 269 430 69 36 112 48 233 69 48
7 98 16 112 18 27 6 372 65 405 71 51 8 102 17 125 21 14 2 39 7 55 9 17 3
118 21 225 39 221 39 318 40 412 7z m12138 -395 c63 -14 129 -27 145 -30 17
-3 140 -28 275 -55 135 -28 261 -53 280 -56 19 -3 51 -10 70 -15 19 -4 105
-23 190 -40 193 -39 260 -70 350 -160 111 -110 162 -239 156 -389 -2 -42 -25
-177 -50 -301 -56 -269 -113 -552 -121 -599 -3 -19 -8 -37 -10 -41 -3 -4 -7
-22 -9 -41 -3 -19 -7 -45 -10 -59 -3 -14 -9 -41 -13 -60 -4 -19 -8 -37 -8 -40
-1 -3 -5 -25 -9 -50 -12 -67 -13 -69 -31 -145 -9 -38 -18 -86 -21 -105 -3 -19
-10 -54 -15 -78 -5 -23 -12 -59 -15 -80 -3 -20 -8 -40 -10 -43 -2 -3 -6 -21
-9 -40 -3 -19 -14 -74 -25 -124 -10 -49 -21 -103 -24 -120 -14 -75 -67 -329
-70 -332 -2 -2 -3 124 -2 279 1 288 -7 390 -39 478 -82 229 -293 398 -535 427
-36 5 -374 8 -751 8 l-686 -1 9 46 c5 25 11 56 14 70 3 14 7 32 9 40 2 8 7 31
10 50 3 19 8 42 10 50 2 8 7 30 10 48 3 18 12 64 20 102 8 38 17 84 20 102 3
18 8 40 10 48 2 8 7 31 10 50 3 19 11 55 16 80 6 25 13 56 15 70 3 14 25 124
50 245 24 121 46 231 49 245 39 215 79 332 132 387 6 7 20 23 30 36 23 30 118
99 163 120 117 53 243 60 420 23z m-13300 -4146 c23 -91 48 -190 56 -220 8
-30 29 -107 45 -170 17 -63 43 -164 59 -225 16 -60 45 -171 64 -245 45 -174
119 -461 186 -715 69 -262 102 -391 105 -405 2 -8 11 -42 20 -75 9 -33 18 -67
20 -75 2 -8 20 -77 40 -153 20 -76 38 -146 40 -155 2 -9 12 -51 23 -92 20 -71
33 -121 117 -445 99 -378 124 -479 121 -482 -8 -8 -120 38 -164 66 -98 63
-181 169 -215 276 -9 28 -23 91 -31 140 -23 141 -65 385 -76 440 -5 28 -12 66
-14 85 -3 19 -10 62 -16 95 -6 33 -13 76 -15 95 -3 19 -10 55 -15 80 -6 25
-12 59 -14 75 -2 17 -20 127 -40 245 -21 118 -39 229 -42 245 -3 17 -7 37 -9
45 -2 8 -6 31 -9 50 -3 19 -12 73 -20 120 -8 47 -17 101 -20 120 -3 19 -7 44
-10 55 -2 11 -9 54 -16 95 -6 41 -18 107 -25 145 -8 39 -17 88 -19 110 -3 22
-8 52 -11 68 -9 48 -14 77 -61 352 -26 149 -48 279 -49 290 -2 11 -6 36 -10
55 -3 19 -8 49 -11 65 -2 17 -6 41 -9 55 -3 14 -10 53 -15 87 -6 34 -13 70
-16 80 -4 14 -4 15 4 3 5 -8 28 -89 52 -180z m12880 -3621 c0 -3 -13 -15 -30
-27 -44 -33 -82 -105 -84 -158 -1 -51 10 -49 -131 -19 -44 9 -91 19 -105 21
-14 2 -36 7 -50 10 -14 3 -38 8 -55 11 -16 2 -46 8 -65 13 -19 5 -51 12 -70
15 -19 3 -42 8 -50 10 -8 2 -28 7 -45 9 -16 3 -106 21 -200 40 -93 19 -181 37
-195 39 -108 20 -156 31 -162 36 -4 3 274 6 617 6 344 0 625 -3 625 -6z"/>
<path d="M5067 5054 c-1 -1 -47 -4 -102 -7 -132 -8 -169 -13 -304 -43 -549
-122 -1028 -480 -1303 -974 -98 -175 -180 -399 -212 -575 -3 -16 -8 -39 -10
-51 -2 -12 -7 -45 -11 -75 -4 -30 -9 -65 -11 -79 -5 -40 -5 -300 0 -365 26
-302 139 -639 295 -875 20 -30 38 -60 41 -65 20 -42 144 -189 240 -286 389
-392 906 -599 1455 -584 83 3 166 7 185 10 133 18 143 20 250 46 345 85 677
274 928 529 109 111 106 107 235 281 45 60 133 222 190 349 41 91 110 323 122
406 8 59 16 110 22 144 3 19 7 105 8 190 3 170 -14 346 -46 475 -5 22 -12 50
-14 62 -9 39 -62 197 -86 253 -56 132 -171 338 -236 420 -169 216 -311 351
-508 482 -87 58 -310 178 -330 178 -4 0 -21 7 -38 15 -89 41 -307 99 -452 119
-54 8 -303 24 -308 20z"/>
<path d="M16497 5054 c-1 0 -51 -4 -112 -8 -60 -3 -121 -8 -135 -10 -14 -3
-43 -7 -65 -11 -56 -8 -266 -62 -317 -81 -439 -164 -764 -418 -1010 -789 -155
-235 -274 -542 -304 -790 -3 -22 -9 -69 -14 -105 -9 -63 -6 -395 3 -435 2 -11
7 -41 11 -66 45 -312 182 -637 373 -889 233 -308 559 -549 913 -678 101 -36
256 -78 325 -87 28 -4 53 -9 56 -11 29 -17 381 -25 514 -11 222 23 442 87 650
188 124 61 139 69 192 106 17 13 34 23 38 23 10 0 116 80 205 155 345 292 596
741 667 1190 2 17 7 41 10 55 9 43 12 433 4 480 -5 25 -11 65 -14 90 -20 170
-103 424 -198 607 -229 442 -626 791 -1089 958 -97 34 -287 84 -353 91 -29 3
-59 8 -67 10 -8 3 -55 8 -105 10 -49 3 -109 6 -133 8 -23 1 -43 1 -45 0z"/>
</g>
</svg>
