<svg xmlns="http://www.w3.org/2000/svg"
 xmlns:xlink="http://www.w3.org/1999/xlink">

<symbol viewBox="0 0 69 71" id="main-logo">
<path fill-rule="evenodd"  stroke="rgb(255, 255, 255)" stroke-width="2px" stroke-linecap="butt" stroke-linejoin="miter" fill="none"
 d="M63.675,68.857 L34.860,13.860 L6.046,68.857 L63.675,68.857 Z"/>
<path fill-rule="evenodd"  stroke="rgb(246, 247, 252)" stroke-width="2px" stroke-linecap="butt" stroke-linejoin="miter" fill="none"
 d="M34.500,1.000 C53.002,1.000 68.000,15.870 68.000,34.214 C68.000,52.558 53.002,67.429 34.500,67.429 C15.998,67.429 1.000,52.558 1.000,34.214 C1.000,15.870 15.998,1.000 34.500,1.000 Z"/>
<path fill-rule="evenodd"  fill="rgb(255, 255, 255)"
 d="M34.860,63.857 C36.850,63.857 38.462,65.456 38.462,67.429 C38.462,69.401 36.850,71.000 34.860,71.000 C32.871,71.000 31.258,69.401 31.258,67.429 C31.258,65.456 32.871,63.857 34.860,63.857 Z"/>
<path fill-rule="evenodd"  fill="rgb(255, 255, 255)"
 d="M61.516,63.857 C63.505,63.857 65.118,65.456 65.118,67.429 C65.118,69.401 63.505,71.000 61.516,71.000 C59.527,71.000 57.914,69.401 57.914,67.429 C57.914,65.456 59.527,63.857 61.516,63.857 Z"/>
<path fill-rule="evenodd"  fill="rgb(255, 255, 255)"
 d="M6.043,63.857 C8.032,63.857 9.645,65.456 9.645,67.429 C9.645,69.401 8.032,71.000 6.043,71.000 C4.054,71.000 2.441,69.401 2.441,67.429 C2.441,65.456 4.054,63.857 6.043,63.857 Z"/>
</symbol>

 <symbol viewBox="0 0 79.969 83.03" id="design-logo">
 <path fill-rule="evenodd"  fill="rgb(60, 60, 60)"
 d="M77.956,-0.011 L66.032,-0.011 C64.907,-0.011 64.007,0.889 64.007,2.014 L64.007,6.177 L15.860,6.177 L15.860,2.014 C15.860,0.889 14.961,-0.011 13.836,-0.011 L2.024,-0.011 C0.899,-0.011 -0.001,0.889 -0.001,2.014 L-0.001,14.277 C-0.001,15.402 0.899,16.302 2.024,16.302 L13.948,16.302 C15.073,16.302 15.973,15.402 15.973,14.277 L15.973,10.114 L38.134,10.114 C37.909,15.065 25.872,38.354 18.223,52.079 C17.773,52.867 17.998,53.879 18.673,54.554 C25.535,60.404 27.222,66.143 27.672,69.067 L25.085,69.067 C23.960,69.067 23.060,69.967 23.060,71.093 L23.060,80.993 C23.060,82.118 23.960,83.018 25.085,83.018 L55.008,83.018 C56.133,83.018 57.033,82.118 57.033,80.993 L57.033,71.093 C57.033,69.967 56.133,69.067 55.008,69.067 L52.420,69.067 C52.870,66.143 54.558,60.404 61.420,54.554 C62.095,53.992 62.320,52.867 61.870,52.079 C54.220,38.354 42.184,14.952 41.959,10.114 L64.007,10.114 L64.007,14.277 C64.007,15.402 64.907,16.302 66.032,16.302 L77.956,16.302 C79.081,16.302 79.981,15.402 79.981,14.277 L79.981,2.014 C79.981,0.889 79.081,-0.011 77.956,-0.011 ZM11.923,12.252 L3.936,12.252 L3.936,3.926 L11.923,3.926 L11.923,12.252 ZM40.046,45.216 C41.509,45.216 42.634,46.341 42.634,47.804 C42.634,49.267 41.509,50.392 40.046,50.392 C38.584,50.392 37.459,49.267 37.459,47.804 C37.459,46.454 38.696,45.216 40.046,45.216 ZM53.095,78.855 L27.110,78.855 L27.110,72.893 L29.810,72.893 L50.396,72.893 L53.095,72.893 L53.095,78.855 ZM48.483,68.955 L31.609,68.955 C31.159,65.692 29.472,59.167 22.385,52.529 C25.085,47.579 33.184,32.728 38.021,21.702 L38.021,41.616 C35.434,42.404 33.522,44.878 33.522,47.804 C33.522,51.404 36.447,54.329 40.046,54.329 C43.646,54.329 46.571,51.404 46.571,47.804 C46.571,44.878 44.658,42.516 42.071,41.616 L42.071,21.590 C47.021,32.616 55.008,47.466 57.707,52.529 C50.621,59.167 48.933,65.692 48.483,68.955 ZM76.044,12.252 L68.057,12.252 L68.057,8.539 C68.057,8.427 68.057,8.314 68.057,8.202 C68.057,8.089 68.057,7.977 68.057,7.864 L68.057,4.039 L76.044,4.039 L76.044,12.252 Z"/>
  </symbol>

  <symbol viewBox="0 0 79 76" id="development-logo">
  <svg 
 xmlns="http://www.w3.org/2000/svg"
 xmlns:xlink="http://www.w3.org/1999/xlink"
 width="79px" height="76px">
<path fill-rule="evenodd"  fill="rgb(60, 60, 60)"
 d="M76.921,75.997 L2.078,75.997 C0.929,75.997 -0.002,75.057 -0.002,73.899 L-0.002,12.982 L-0.002,2.093 C-0.002,0.934 0.929,-0.006 2.078,-0.006 L76.921,-0.006 C78.069,-0.006 79.000,0.933 79.000,2.093 L79.000,12.982 L79.000,73.899 C79.000,75.058 78.069,75.997 76.921,75.997 ZM74.842,4.192 L4.156,4.192 L4.156,10.883 L74.842,10.883 L74.842,4.192 ZM74.842,15.080 L4.156,15.080 L4.156,71.800 L74.842,71.800 L74.842,15.080 ZM27.748,34.625 C28.459,33.908 29.610,33.908 30.321,34.625 C31.032,35.342 31.032,36.504 30.321,37.221 L25.957,41.628 L30.331,46.043 C31.041,46.760 31.041,47.922 30.331,48.639 C29.976,48.997 29.510,49.177 29.045,49.177 C28.579,49.177 28.115,48.997 27.759,48.638 L22.099,42.926 C21.388,42.209 21.388,41.046 22.099,40.329 L27.748,34.625 ZM39.752,32.847 C40.000,31.864 40.996,31.273 41.964,31.522 C42.938,31.772 43.526,32.773 43.278,33.756 L38.654,52.037 C38.444,52.866 37.704,53.418 36.893,53.418 C36.744,53.418 36.592,53.400 36.441,53.361 C35.467,53.111 34.881,52.111 35.129,51.128 L39.752,32.847 ZM48.666,34.624 C49.376,33.907 50.529,33.907 51.238,34.624 L56.898,40.337 C57.240,40.681 57.432,41.148 57.432,41.635 C57.432,42.122 57.240,42.588 56.898,42.933 L51.247,48.637 C50.892,48.997 50.427,49.177 49.962,49.177 C49.497,49.177 49.030,48.997 48.676,48.638 C47.965,47.921 47.965,46.759 48.676,46.042 L53.041,41.636 L48.666,37.221 C47.956,36.503 47.956,35.342 48.666,34.624 ZM9.181,6.069 C9.984,6.069 10.635,6.727 10.635,7.537 C10.635,8.348 9.984,9.005 9.181,9.005 C8.377,9.005 7.726,8.348 7.726,7.537 C7.726,6.727 8.377,6.069 9.181,6.069 ZM13.531,6.070 C14.334,6.070 14.985,6.727 14.985,7.537 C14.985,8.348 14.334,9.004 13.531,9.004 C12.729,9.004 12.078,8.348 12.078,7.537 C12.078,6.727 12.729,6.070 13.531,6.070 ZM17.881,6.069 C18.684,6.069 19.335,6.727 19.335,7.537 C19.335,8.348 18.684,9.005 17.881,9.005 C17.078,9.005 16.427,8.348 16.427,7.537 C16.427,6.727 17.078,6.069 17.881,6.069 Z"/>
</svg>
  </symbol>

  <symbol viewBox="0 0 78.969 91" id="product-logo">
  <defs>
    <style>
      .cls-1 {
        fill: #3c3c3c;
        fill-rule: evenodd;
      }
    </style>
  </defs>
  <path class="cls-1" d="M939.756,3177.11a1.579,1.579,0,0,1-1.109-.45l-3.1-3.08a1.548,1.548,0,0,1,0-2.2,1.574,1.574,0,0,1,2.219,0l1.989,1.97,5.086-5.05a1.574,1.574,0,0,1,2.219,0,1.546,1.546,0,0,1,0,2.2l-6.2,6.16A1.589,1.589,0,0,1,939.756,3177.11Zm32.555-3.07H953.637a1.56,1.56,0,1,1,0-3.12h18.674A1.56,1.56,0,1,1,972.311,3174.04Zm-32.555,29.75a1.579,1.579,0,0,1-1.109-.45l-3.1-3.08a1.548,1.548,0,0,1,0-2.2,1.574,1.574,0,0,1,2.219,0l1.989,1.97,5.086-5.05a1.574,1.574,0,0,1,2.219,0,1.546,1.546,0,0,1,0,2.2l-6.2,6.16A1.589,1.589,0,0,1,939.756,3203.79Zm32.555-3.07H953.637a1.56,1.56,0,1,1,0-3.12h18.674A1.56,1.56,0,1,1,972.311,3200.72Zm-32.555,16.42a1.589,1.589,0,0,1-1.109-.46l-3.1-3.08a1.548,1.548,0,0,1,0-2.2,1.574,1.574,0,0,1,2.219,0l1.989,1.97,5.086-5.05a1.574,1.574,0,0,1,2.219,0,1.557,1.557,0,0,1,0,2.21l-6.2,6.15A1.6,1.6,0,0,1,939.756,3217.14Zm32.555-3.08H953.637a1.56,1.56,0,1,1,0-3.12h18.674A1.56,1.56,0,1,1,972.311,3214.06Zm-32.555-23.61a1.579,1.579,0,0,1-1.109-.45l-3.1-3.08a1.56,1.56,0,0,1,0-2.21,1.593,1.593,0,0,1,2.219,0l1.989,1.98,5.086-5.05a1.574,1.574,0,0,1,2.219,0,1.545,1.545,0,0,1,0,2.2l-6.2,6.16A1.589,1.589,0,0,1,939.756,3190.45Zm32.555-3.07H953.637a1.56,1.56,0,1,1,0-3.12h18.674A1.56,1.56,0,1,1,972.311,3187.38Zm22.577-36.98H976.422a6.132,6.132,0,0,0-6.141-5.68H964.3a5.812,5.812,0,0,0-11.623,0h-5.994a6.128,6.128,0,0,0-6.131,5.68H920.081a2.088,2.088,0,0,0-2.092,2.08v75.44a2.082,2.082,0,0,0,2.092,2.08h74.807a2.083,2.083,0,0,0,2.093-2.08v-75.44A2.089,2.089,0,0,0,994.888,3150.4Zm-50.177.44a1.965,1.965,0,0,1,1.968-1.96h6.539a3.63,3.63,0,0,0,3.641-3.61v-0.48a1.627,1.627,0,0,1,3.254,0v0.48a3.627,3.627,0,0,0,3.63,3.61h6.539a1.966,1.966,0,0,1,1.977,1.96v4.26H944.713v-4.26h0Zm48.085,75H922.173v-71.28h18.353v2.62a2.082,2.082,0,0,0,2.092,2.08h31.731a2.082,2.082,0,0,0,2.092-2.08v-2.62h16.353v71.28h0Zm-34.311-76.7a2,2,0,1,1-2.01,2A2,2,0,0,1,958.485,3149.14Z" transform="translate(-918 -3139)"/>
  </symbol>

  <symbol viewBox="0 0 69 71" id="footer-logo">
<path fill-rule="evenodd"  stroke="#3c3c3c" stroke-width="2px" stroke-linecap="butt" stroke-linejoin="miter" fill="none"
 d="M63.675,68.857 L34.860,13.860 L6.046,68.857 L63.675,68.857 Z"/>
<path fill-rule="evenodd"  stroke="#3c3c3c" stroke-width="2px" stroke-linecap="butt" stroke-linejoin="miter" fill="none"
 d="M34.500,1.000 C53.002,1.000 68.000,15.870 68.000,34.214 C68.000,52.558 53.002,67.429 34.500,67.429 C15.998,67.429 1.000,52.558 1.000,34.214 C1.000,15.870 15.998,1.000 34.500,1.000 Z"/>
<path fill-rule="evenodd"  fill="#3c3c3c"
 d="M34.860,63.857 C36.850,63.857 38.462,65.456 38.462,67.429 C38.462,69.401 36.850,71.000 34.860,71.000 C32.871,71.000 31.258,69.401 31.258,67.429 C31.258,65.456 32.871,63.857 34.860,63.857 Z"/>
<path fill-rule="evenodd"  fill="#3c3c3c"
 d="M61.516,63.857 C63.505,63.857 65.118,65.456 65.118,67.429 C65.118,69.401 63.505,71.000 61.516,71.000 C59.527,71.000 57.914,69.401 57.914,67.429 C57.914,65.456 59.527,63.857 61.516,63.857 Z"/>
<path fill-rule="evenodd"  fill="#3c3c3c"
 d="M6.043,63.857 C8.032,63.857 9.645,65.456 9.645,67.429 C9.645,69.401 8.032,71.000 6.043,71.000 C4.054,71.000 2.441,69.401 2.441,67.429 C2.441,65.456 4.054,63.857 6.043,63.857 Z"/>
</symbol>
  </svg>