<?xml version="1.0" standalone="no"?>
<!DOCTYPE svg PUBLIC "-//W3C//DTD SVG 20010904//EN"
 "http://www.w3.org/TR/2001/REC-SVG-20010904/DTD/svg10.dtd">
<svg version="1.0" xmlns="http://www.w3.org/2000/svg"
 width="499.000000pt" height="499.000000pt" viewBox="0 0 499.000000 499.000000"
 preserveAspectRatio="xMidYMid meet">
<metadata>
Created by potrace 1.14, written by Peter Selinger 2001-2017
</metadata>
<g transform="translate(0.000000,499.000000) scale(0.100000,-0.100000)"
fill="#000000" stroke="none">
<path d="M2300 4940 c-494 -45 -954 -227 -1335 -530 -103 -81 -304 -282 -385
-385 -270 -340 -445 -743 -512 -1180 -30 -198 -30 -512 0 -710 67 -437 242
-839 512 -1180 84 -106 294 -314 400 -397 344 -266 734 -434 1165 -499 166
-26 514 -31 655 -11 582 85 1039 310 1436 706 382 383 612 840 696 1381 30
198 30 512 0 710 -67 437 -242 840 -512 1180 -81 103 -282 304 -385 385 -339
269 -751 448 -1177 510 -154 23 -421 32 -558 20z m283 -1743 c42 -18 44 -23
20 -49 -16 -18 -10 -26 159 -195 l177 -177 53 2 c29 0 73 8 97 16 56 20 52 21
95 -13 49 -39 101 -49 301 -56 218 -7 271 -12 438 -37 98 -15 147 -27 170 -42
39 -26 76 -96 83 -162 6 -49 8 -51 62 -79 77 -41 109 -70 123 -113 15 -47 25
-60 51 -64 27 -4 35 -26 12 -35 -19 -7 -74 -62 -74 -74 0 -5 -14 -24 -30 -43
-18 -20 -26 -37 -20 -41 5 -3 10 -10 10 -16 0 -12 -216 -12 -241 1 -26 15 -44
53 -63 140 -32 146 -54 197 -106 250 -96 95 -223 133 -378 112 -105 -14 -175
-47 -230 -106 -56 -61 -78 -109 -113 -244 -20 -79 -37 -123 -51 -134 -19 -17
-64 -18 -637 -18 -480 0 -621 3 -634 13 -10 7 -31 58 -47 115 -49 168 -97 250
-171 291 l-44 25 53 -52 c33 -32 65 -77 85 -119 28 -60 32 -77 31 -153 -1
-155 -75 -275 -212 -342 -61 -30 -74 -33 -162 -33 -82 0 -103 4 -152 27 -158
73 -249 243 -219 405 13 70 41 134 74 171 11 12 18 22 14 22 -3 0 -20 -15 -36
-32 -38 -40 -83 -124 -106 -198 -10 -30 -27 -66 -39 -79 -20 -22 -26 -23 -106
-18 -108 7 -173 30 -221 78 -47 47 -49 69 -9 102 25 22 30 33 30 71 0 99 17
142 95 234 149 177 269 277 323 266 22 -4 79 15 238 81 115 48 256 104 313
125 104 39 151 70 151 100 0 14 31 23 183 49 278 50 281 50 457 47 124 -2 174
-7 203 -19z m1172 -722 c147 -71 233 -240 205 -397 -23 -126 -104 -233 -218
-286 -49 -23 -71 -27 -152 -27 -87 0 -101 3 -161 32 -289 142 -289 537 -1 682
88 45 232 43 327 -4z"/>
<path d="M2165 3093 c-82 -9 -255 -49 -255 -58 0 -5 24 -73 54 -150 l54 -140
248 4 c137 2 251 5 252 6 2 2 -25 80 -60 174 l-63 171 -100 -2 c-55 0 -113 -3
-130 -5z"/>
<path d="M2431 3093 c2 -6 31 -83 64 -171 l60 -162 124 0 123 0 -140 148 c-77
81 -148 155 -158 164 -22 19 -79 36 -73 21z"/>
<path d="M1708 2985 c-34 -19 -110 -59 -168 -90 -114 -59 -172 -107 -153 -126
6 -6 31 -15 55 -20 56 -11 478 -12 478 -1 0 5 -11 35 -24 68 -13 32 -35 92
-50 132 -33 86 -43 89 -138 37z"/>
<path d="M1282 2354 c-85 -42 -132 -121 -132 -221 0 -107 69 -198 175 -228
156 -46 307 70 307 235 0 180 -188 295 -350 214z m225 -60 c83 -68 103 -166
50 -256 -91 -156 -324 -112 -362 69 -8 41 10 110 41 151 41 53 88 73 166 69
57 -2 72 -7 105 -33z"/>
<path d="M3485 2357 c-55 -26 -99 -72 -123 -127 -21 -49 -20 -147 2 -190 82
-160 276 -195 397 -71 108 112 87 294 -45 375 -68 42 -159 47 -231 13z m193
-46 c68 -35 105 -97 104 -177 0 -62 -18 -100 -66 -142 -119 -104 -297 -37
-323 121 -12 74 43 173 112 203 45 20 129 17 173 -5z"/>
</g>
</svg>
