<?xml version="1.0" standalone="no"?>
<!DOCTYPE svg PUBLIC "-//W3C//DTD SVG 20010904//EN"
 "http://www.w3.org/TR/2001/REC-SVG-20010904/DTD/svg10.dtd">
<svg version="1.0" xmlns="http://www.w3.org/2000/svg"
 width="1280.000000pt" height="1280.000000pt" viewBox="0 0 1280.000000 1280.000000"
 preserveAspectRatio="xMidYMid meet">
<metadata>
Created by potrace 1.14, written by Peter Selinger 2001-2017
</metadata>
<g transform="translate(0.000000,1280.000000) scale(0.100000,-0.100000)"
fill="#000000" stroke="none">
<path d="M6088 12795 c-2 -2 -55 -6 -118 -10 -63 -3 -128 -8 -145 -10 -16 -2
-61 -7 -100 -11 -38 -4 -79 -8 -90 -9 -73 -8 -336 -48 -400 -61 -11 -3 -36 -7
-55 -10 -19 -3 -51 -9 -70 -14 -19 -5 -46 -11 -60 -14 -43 -7 -212 -47 -266
-62 -28 -8 -60 -16 -71 -18 -83 -16 -536 -168 -678 -227 -95 -39 -175 -73
-200 -84 -359 -160 -664 -326 -958 -524 -88 -58 -166 -110 -175 -116 -19 -12
-12 -7 -200 -151 -329 -251 -641 -544 -917 -858 -33 -38 -64 -74 -70 -80 -5
-6 -32 -38 -58 -71 -26 -33 -56 -69 -65 -80 -40 -44 -253 -337 -323 -445 -106
-161 -169 -260 -169 -266 0 -2 -11 -21 -23 -42 -13 -20 -35 -57 -49 -82 -14
-25 -35 -63 -48 -85 -114 -200 -294 -597 -381 -840 -22 -60 -44 -119 -49 -130
-23 -50 -159 -522 -185 -644 -2 -9 -10 -48 -19 -86 -17 -83 -20 -94 -40 -200
-8 -44 -18 -98 -21 -120 -3 -23 -7 -52 -10 -65 -2 -13 -9 -60 -15 -104 -6 -45
-13 -97 -16 -116 -2 -19 -7 -62 -10 -95 -3 -33 -7 -78 -9 -100 -26 -223 -26
-885 -1 -1125 3 -25 7 -72 10 -105 6 -64 14 -131 21 -180 3 -16 7 -48 10 -70
4 -22 8 -51 11 -65 2 -14 7 -45 10 -70 3 -25 7 -53 10 -62 6 -20 12 -54 18
-95 6 -40 41 -204 66 -303 11 -47 23 -96 26 -110 2 -14 7 -32 11 -40 3 -8 7
-19 8 -25 25 -112 160 -521 214 -650 5 -11 30 -72 56 -135 98 -233 287 -619
308 -628 4 -2 7 -7 7 -12 0 -27 267 -458 367 -590 6 -8 55 -73 109 -145 305
-407 650 -768 1044 -1094 98 -81 87 -72 225 -177 66 -49 156 -115 200 -145 44
-30 85 -57 90 -62 36 -27 196 -127 205 -127 5 0 10 -4 10 -10 0 -5 5 -10 11
-10 6 0 30 -13 54 -30 24 -16 46 -30 50 -30 3 0 22 -10 43 -23 57 -36 421
-228 442 -234 3 0 30 -12 60 -26 200 -90 304 -134 415 -173 39 -14 79 -29 90
-35 22 -10 291 -99 315 -104 8 -2 26 -8 40 -13 14 -5 27 -10 30 -10 3 0 12 -3
20 -6 8 -3 33 -10 55 -15 22 -5 94 -23 159 -40 103 -27 378 -85 456 -97 14 -2
41 -6 60 -9 19 -3 64 -10 100 -15 36 -6 81 -13 100 -16 19 -3 51 -7 70 -9 113
-11 169 -16 205 -20 237 -27 872 -27 1135 0 30 3 75 8 100 10 93 9 156 16 175
20 11 2 43 7 70 10 28 3 59 8 71 10 12 3 39 7 60 10 21 4 48 8 59 10 11 2 45
8 75 14 30 6 66 12 80 15 82 15 145 30 320 75 107 27 211 55 230 61 19 6 42
13 51 15 57 12 435 146 524 184 11 5 59 25 107 45 235 98 609 287 776 393 29
18 57 33 62 33 6 0 10 5 10 10 0 6 5 10 11 10 26 0 419 272 592 410 120 95
119 94 136 110 9 8 32 27 51 41 36 28 48 38 190 167 103 94 334 325 412 413
31 35 73 82 93 104 181 200 520 663 654 895 18 30 37 64 44 75 71 116 236 432
300 575 8 19 28 62 42 95 122 272 261 679 339 990 34 134 75 318 81 360 7 45
16 101 20 115 3 8 7 33 10 55 4 22 11 68 16 103 9 61 19 136 24 177 1 11 5 52
9 90 4 39 9 84 11 100 20 154 27 811 12 1005 -5 52 -10 118 -12 145 -4 51 -12
122 -20 185 -3 19 -7 54 -10 77 -5 39 -17 122 -30 213 -3 19 -11 60 -17 90 -6
30 -12 66 -13 80 -2 14 -4 27 -5 30 -2 3 -4 10 -5 15 -5 32 -30 143 -52 230
-13 55 -26 111 -29 125 -2 14 -7 32 -11 40 -3 8 -8 24 -10 35 -13 68 -181 579
-201 609 -4 6 -7 13 -8 16 -17 83 -338 766 -366 778 -5 2 -8 7 -8 12 0 27
-276 472 -367 590 -6 8 -46 62 -89 120 -69 94 -200 259 -250 316 -11 12 -41
48 -69 79 -155 180 -418 443 -596 597 -30 25 -67 58 -84 73 -16 15 -46 38 -65
53 -19 15 -39 32 -45 38 -5 6 -28 24 -50 40 -22 16 -42 31 -45 34 -62 63 -576
413 -680 464 -24 11 -57 31 -71 43 -12 9 -60 35 -314 167 -71 38 -317 149
-430 196 -44 18 -89 36 -100 41 -11 5 -72 27 -135 50 -63 22 -128 46 -145 52
-16 6 -34 12 -40 14 -5 1 -68 20 -140 43 -103 32 -333 95 -425 115 -132 30
-201 44 -235 49 -11 2 -45 8 -75 14 -58 12 -81 16 -195 32 -89 13 -127 18
-193 25 -29 4 -62 8 -73 10 -11 2 -62 7 -114 10 -51 4 -106 9 -122 11 -32 5
-750 14 -755 9z"/>
</g>
</svg>
